<svg xmlns="http://www.w3.org/2000/svg" version="1.1" xmlns:xlink="http://www.w3.org/1999/xlink" xmlns:svgjs="http://svgjs.dev/svgjs" width="1500" height="1071" viewBox="0 0 1500 1071"><g transform="matrix(1,0,0,1,-0.9090909090909918,0.8645211719431245)"><svg viewBox="0 0 396 283" data-background-color="#ffffff" preserveAspectRatio="xMidYMid meet" height="1071" width="1500" xmlns="http://www.w3.org/2000/svg" xmlns:xlink="http://www.w3.org/1999/xlink"><g id="tight-bounds" transform="matrix(1,0,0,1,0.2400000000000091,31.8478385492225)"><svg viewBox="0 0 395.52 247.2" height="247.2" width="395.52"><g><svg></svg></g><g><svg viewBox="0 0 395.52 247.2" height="247.2" width="395.52"><mask id="36490339-8b60-47b6-b0c2-a515d7024cf8"><rect width="640" height="400" fill="white"></rect><g transform="matrix(1,0,0,1,129.82424821002382,37.08)"><svg viewBox="0 0 135.8715035799523 173.04" height="173.04" width="135.8715035799523"><g><svg viewBox="0 0 135.8715035799523 173.04" height="173.04" width="135.8715035799523"><g><svg viewBox="0 0 135.8715035799523 173.04" height="173.04" width="135.8715035799523"><g><svg viewBox="0 0 135.8715035799523 173.04" height="173.04" width="135.8715035799523"><g id="SvgjsG6984"><svg viewBox="0 0 135.8715035799523 173.04" height="173.04" width="135.8715035799523" id="SvgjsSvg6983"><g><svg viewBox="0 0 135.8715035799523 173.04" height="173.04" width="135.8715035799523"><g transform="matrix(1,0,0,1,0,0)"><svg width="135.8715035799523" viewBox="0.04999999999999982 -38.9 33.900000000000006 42.9" height="173.04" data-palette-color="#8abe53"><path d="M17-12.75L7.85-12.75 7.85-17.25 16.95-17.25Q20.3-17.25 22.35-19.1 24.4-20.95 24.4-23.95L24.4-23.95Q24.4-26.85 22.5-28.63 20.6-30.4 17.45-30.4L17.45-30.4 7.85-30.4 7.85-34.9 17.45-34.9Q21.25-34.9 24.05-33.55 26.85-32.2 28.4-29.75 29.95-27.3 29.95-23.95L29.95-23.95Q29.95-20.6 28.35-18.07 26.75-15.55 23.83-14.15 20.9-12.75 17-12.75L17-12.75ZM9.35 0L4.05 0 4.05-34.9 9.35-34.9 9.35 0Z" opacity="1" transform="matrix(1,0,0,1,0,0)" fill="black" class="wordmark-text-0" id="SvgjsPath6982" stroke-width="7" stroke="black" stroke-linejoin="round"></path></svg></g></svg></g></svg></g></svg></g></svg></g></svg></g></svg></g></mask><g transform="matrix(1,0,0,1,129.82424821002382,37.08)"><svg viewBox="0 0 135.8715035799523 173.04" height="173.04" width="135.8715035799523"><g><svg viewBox="0 0 135.8715035799523 173.04" height="173.04" width="135.8715035799523"><g><svg viewBox="0 0 135.8715035799523 173.04" height="173.04" width="135.8715035799523"><g><svg viewBox="0 0 135.8715035799523 173.04" height="173.04" width="135.8715035799523"><g id="textblocktransform"><svg viewBox="0 0 135.8715035799523 173.04" height="173.04" width="135.8715035799523" id="textblock"><g><svg viewBox="0 0 135.8715035799523 173.04" height="173.04" width="135.8715035799523"><g transform="matrix(1,0,0,1,0,0)"><svg width="135.8715035799523" viewBox="0.04999999999999982 -38.9 33.900000000000006 42.9" height="173.04" data-palette-color="#8abe53"><path d="M17-12.75L7.85-12.75 7.85-17.25 16.95-17.25Q20.3-17.25 22.35-19.1 24.4-20.95 24.4-23.95L24.4-23.95Q24.4-26.85 22.5-28.63 20.6-30.4 17.45-30.4L17.45-30.4 7.85-30.4 7.85-34.9 17.45-34.9Q21.25-34.9 24.05-33.55 26.85-32.2 28.4-29.75 29.95-27.3 29.95-23.95L29.95-23.95Q29.95-20.6 28.35-18.07 26.75-15.55 23.83-14.15 20.9-12.75 17-12.75L17-12.75ZM9.35 0L4.05 0 4.05-34.9 9.35-34.9 9.35 0Z" opacity="1" transform="matrix(1,0,0,1,0,0)" fill="#8abe53" class="wordmark-text-0" data-fill-palette-color="primary" id="text-0"></path></svg></g></svg></g></svg></g></svg></g></svg></g></svg></g></svg></g><g mask="url(#36490339-8b60-47b6-b0c2-a515d7024cf8)"><g transform="matrix(4.539845677705214, 0, 0, 4.539845677705214, 61.564629668843565, 1)"><svg xmlns="http://www.w3.org/2000/svg" viewBox="2 4.99964381234593 60 54.01064648610321" x="0" y="0" height="54.01064648610321" width="60" class="icon-none" data-fill-palette-color="accent" id="none"><path d="M32 9A21 21 0 1 0 53 30 21 21 0 0 0 32 9Zm-1 4h2v3H31ZM18 31H15V29h3ZM33 47H31V44h2Zm-0.232-16.359a1 1 0 0 1-1.349 0.172l-7-5 1.162-1.626 6.245 4.459 9.406-11.287 1.536 1.282ZM46 31V29h3v2Z" fill="#398378" data-fill-palette-color="accent"></path><path d="M56 21a3.713 3.713 0 0 0-0.67 0.07 24.977 24.977 0 0 0-46.67 0A3.7 3.7 0 0 0 8 21c-3.36 0-6 3.95-6 9s2.64 9 6 9a4.215 4.215 0 0 0 1.68-0.35 1.009 1.009 0 0 0 0.55-1.24A22.764 22.764 0 0 1 9 30a23 23 0 0 1 44.77-7.41A22.764 22.764 0 0 1 55 30a32.56 32.56 0 0 1-0.9 7.63c-1.98 8.2-7.85 16.93-18.35 17.33A4.067 4.067 0 0 0 32 53c-2.24 0-4 1.32-4 3s1.76 3 4 3a4.011 4.011 0 0 0 3.78-2.03c9.53-0.36 17.09-7.15 20.02-17.99A1.231 1.231 0 0 0 56 39c3.36 0 6-3.95 6-9S59.36 21 56 21ZM32 57c-1.22 0-2-0.59-2-1s0.78-1 2-1 2 0.59 2 1S33.22 57 32 57Z" fill="#398378" data-fill-palette-color="accent"></path></svg></g></g></svg></g><defs></defs></svg><rect width="395.52" height="247.2" fill="none" stroke="none" visibility="hidden"></rect></g></svg></g></svg>